<svg width="70" height="70" viewBox="0 0 70 70" fill="none" xmlns="http://www.w3.org/2000/svg">
<mask id="mask0_615_95" style="mask-type:alpha" maskUnits="userSpaceOnUse" x="0" y="0" width="70" height="70">
<path d="M56.875 8.75H10.2083C7 8.75 4.40417 11.375 4.40417 14.5833L4.375 49.5833C4.375 52.7917 7 55.4167 10.2083 55.4167H33.5417V49.5833H10.2083V20.4167L33.5417 35L56.875 20.4167V35H62.7083V14.5833C62.7083 11.375 60.0833 8.75 56.875 8.75ZM33.5417 29.1667L10.2083 14.5833H56.875L33.5417 29.1667ZM49.1167 61.25L38.7917 50.925L42.9042 46.8125L49.0875 52.9958L61.4542 40.6292L65.625 44.7417L49.1167 61.25Z" fill="black"/>
</mask>
<g mask="url(#mask0_615_95)">
<rect x="-24" y="-8" width="100" height="100" fill="#476339"/>
</g>
</svg>
